<?xml version="1.0" encoding="UTF-8"?><svg id="LOGO" xmlns="http://www.w3.org/2000/svg" viewBox="0 0 850.31 113.57"><defs><style>.cls-1{fill:#094160;}</style></defs><path class="cls-1" d="M168.04,31.18c-3.04-1.47-6.81-2.21-11.33-2.21h-26.78l.09.94h1.13c1.63,0,3.04.58,4.23,1.74s1.79,2.55,1.79,4.18v52.07c-.06,1.63-.67,3.02-1.83,4.18-1.16,1.16-2.55,1.74-4.18,1.74h-1.22v.94h23.21v-.94h-1.22c-1.63,0-3.02-.58-4.18-1.74-1.16-1.16-1.77-2.55-1.83-4.18v-55.73h9.3c3.95,0,7,1.29,9.16,3.85,2.16,2.57,3.27,5.95,3.34,10.15.06.94.03,1.93-.09,2.96-.13,1.03-.28,1.93-.47,2.68-.75,2.57-1.86,4.6-3.34,6.11-1.47,1.5-3.04,2.57-4.7,3.2-1.66.63-3.26,1-4.79,1.13-1.54.13-3.28.09-5.22-.09v.94c2.51,1.44,5.08,2.29,7.71,2.54,2.63.25,5.18-.01,7.66-.8,2.47-.78,4.68-1.99,6.63-3.62,1.94-1.63,3.49-3.65,4.65-6.06,1.16-2.41,1.71-5.09,1.64-8.03,0-3.7-.8-6.91-2.4-9.63-1.6-2.73-3.92-4.82-6.95-6.3Z"/><path class="cls-1" d="M240.22,90.48c-1.22-1.03-2.46-2.3-3.71-3.81-.94-1.06-2.02-2.41-3.24-4.04-1.22-1.63-2.43-3.27-3.62-4.93-1.19-1.66-2.18-3.05-2.96-4.18-.78-1.13-1.17-1.72-1.17-1.79-1-1.38-2.19-2.79-3.57-4.23-1.38-1.44-2.76-2.41-4.14-2.91,3.19-.12,5.97-1.06,8.32-2.82,2.35-1.75,4.18-3.99,5.5-6.72,1.32-2.73,1.97-5.53,1.97-8.41s-.5-5.51-1.5-7.71c-1-2.19-2.37-4.03-4.09-5.5-1.72-1.47-3.81-2.58-6.25-3.34-2.44-.75-5.08-1.13-7.89-1.13h-27.63v.94h1.22c1.63,0,3.02.58,4.18,1.74,1.16,1.16,1.77,2.55,1.83,4.18v52.07c-.06,1.63-.67,3.02-1.83,4.18-1.16,1.16-2.55,1.74-4.18,1.74h-1.22v.94h23.12v-.94h-1.13c-1.63,0-3.04-.58-4.23-1.74-1.19-1.16-1.79-2.55-1.79-4.18v-55.64h1.6c1.13,0,2.47-.01,4.04-.05,1.57-.03,3.07.02,4.51.14,3.38.13,6.12,1.39,8.22,3.81,2.1,2.41,3.18,5.78,3.24,10.1.06,1,.05,1.97-.05,2.91-.09.94-.24,1.72-.42,2.35-.75,2.82-1.9,4.95-3.43,6.39-1.54,1.44-3.23,2.41-5.08,2.91-1.85.5-3.59.78-5.22.85-1.13.06-2.11.08-2.96.05-.85-.03-1.3-.05-1.36-.05v.94c1.56.06,3.01.7,4.32,1.93,1.32,1.22,2.51,2.68,3.57,4.37.19.31.63,1.02,1.32,2.11.69,1.1,1.5,2.4,2.44,3.9.94,1.5,1.9,3.02,2.87,4.56.97,1.54,1.85,2.9,2.63,4.09.78,1.19,1.3,2.01,1.55,2.44,1.19,1.57,2.63,3.02,4.32,4.37,1.69,1.35,3.7,2.41,6.02,3.19,2.32.78,4.98,1.18,7.99,1.18h6.58v-.94c-1.76,0-3.34-.3-4.75-.89-1.41-.59-2.73-1.41-3.95-2.44Z"/><path class="cls-1" d="M302.16,31.88c-5.23-2.82-11.36-4.23-18.37-4.23s-12.96,1.41-18.19,4.23c-5.23,2.82-9.3,6.8-12.22,11.94-2.91,5.14-4.37,11.15-4.37,18.05s1.46,12.91,4.37,18.05c2.91,5.14,6.99,9.12,12.22,11.94,5.23,2.82,11.29,4.23,18.19,4.23s13.14-1.41,18.37-4.23c5.23-2.82,9.3-6.8,12.22-11.94,2.91-5.14,4.37-11.15,4.37-18.05s-1.46-12.91-4.37-18.05c-2.91-5.14-6.99-9.12-12.22-11.94ZM305.59,78.22c-2.07,4.64-4.95,8.24-8.65,10.81-3.7,2.57-8.08,3.85-13.16,3.85s-9.29-1.28-13.02-3.85c-3.73-2.57-6.63-6.17-8.69-10.81-2.07-4.64-3.1-10.09-3.1-16.35s1.03-11.72,3.1-16.35c2.07-4.64,4.96-8.24,8.69-10.81,3.73-2.57,8.07-3.85,13.02-3.85s9.46,1.29,13.16,3.85c3.7,2.57,6.58,6.17,8.65,10.81,2.07,4.64,3.1,10.09,3.1,16.35s-1.03,11.72-3.1,16.35Z"/><path class="cls-1" d="M343.56,28.97h-15.7v.94h1.22c1.63,0,3.02.58,4.18,1.74,1.16,1.16,1.77,2.55,1.83,4.18v57.71c0,2.76-.44,5.43-1.31,8.03-.88,2.6-2.15,4.89-3.81,6.86-1.66,1.97-3.62,3.4-5.87,4.28v.85c2.69.13,5.23-.3,7.61-1.27,2.38-.97,4.48-2.33,6.3-4.09,1.82-1.76,3.24-3.87,4.28-6.34,1.03-2.48,1.55-5.15,1.55-8.03v-57.99c.06-1.63.67-3.02,1.83-4.18,1.16-1.16,2.55-1.74,4.18-1.74h1.22v-.94h-7.52Z"/><path class="cls-1" d="M402.39,85.17c-1.44,2.01-3.26,3.56-5.45,4.65-2.19,1.1-4.92,1.64-8.18,1.64h-13.06v-27.54h14.76c1.63,0,2.97.56,4.04,1.69,1.06,1.13,1.6,2.48,1.6,4.04v1.22h.94v-17.1h-.94v1.13c0,1.57-.53,2.91-1.6,4.04-1.07,1.13-2.41,1.72-4.04,1.79h-14.76v-28.48h18.58c1.63.21,3.01.85,4.12,1.97,1.28,1.32,1.93,2.95,1.93,4.89v1.5h.94v-13.35c-.56.25-1.5.5-2.82.75-1.32.25-2.74.47-4.28.66-1.54.19-2.99.28-4.37.28h-30.07l.09.94h1.13c1.63,0,3.04.58,4.23,1.74,1.19,1.16,1.79,2.55,1.79,4.18v52.07c-.06,1.63-.67,3.02-1.83,4.18-1.16,1.16-2.55,1.74-4.18,1.74h-1.22v.94h42.2l5.08-16.54h-.94c-1,2.63-2.22,4.95-3.66,6.95Z"/><path class="cls-1" d="M470.62,82.4c-2.38,3.73-5.39,6.41-9.02,8.03-3.63,1.63-7.74,2.44-12.31,2.44-5.08-.12-9.51-1.49-13.3-4.09-3.79-2.6-6.74-6.22-8.83-10.86-2.1-4.64-3.15-10.06-3.15-16.26s1.06-11.7,3.19-16.31c2.13-4.6,5.14-8.18,9.02-10.71,3.88-2.54,8.52-3.81,13.91-3.81s10.23,1.4,14.33,4.18c4.1,2.79,6.91,7.06,8.41,12.83h.85l-1.32-14.19c-2.69-1.69-5.95-3.12-9.77-4.28-3.82-1.16-8.12-1.74-12.88-1.74-7.27,0-13.55,1.41-18.84,4.23-5.29,2.82-9.4,6.78-12.31,11.89-2.91,5.11-4.37,11.11-4.37,18s1.47,13.08,4.42,18.19c2.94,5.11,7.06,9.05,12.36,11.84,5.29,2.79,11.39,4.21,18.28,4.28,4.45,0,8.36-.6,11.75-1.79,3.38-1.19,6.28-2.8,8.69-4.84,2.41-2.04,4.4-4.34,5.97-6.91l.47-15.23h-.75c-.81,6.33-2.41,11.36-4.79,15.08Z"/><path class="cls-1" d="M532.04,28.59c-1.54.19-2.99.28-4.37.28h-33.36c-1.32,0-2.76-.09-4.32-.28s-2.99-.41-4.28-.66c-1.28-.25-2.24-.5-2.87-.75v13.34l.94-.09v-1.41c0-2,.64-3.65,1.93-4.93,1.28-1.28,2.93-1.96,4.93-2.02h15.98v55.83c-.06,1.63-.67,3.02-1.83,4.18-1.16,1.16-2.55,1.74-4.18,1.74h-1.22v.94h23.21v-.94h-1.22c-1.63,0-3.02-.58-4.18-1.74-1.16-1.16-1.77-2.55-1.83-4.18v-55.83h15.98c2,.06,3.65.74,4.93,2.02,1.28,1.29,1.93,2.93,1.93,4.93v1.41l.94.09v-13.34c-.56.25-1.5.5-2.82.75-1.32.25-2.74.47-4.28.66Z"/><path class="cls-1" d="M620.05,33.01c-5.14-2.69-11.18-4.04-18.14-4.04h-32.61l.09.94h1.13c1.63,0,3.04.58,4.23,1.74,1.19,1.16,1.79,2.55,1.79,4.18v52.07c-.06,1.63-.67,3.02-1.83,4.18-1.16,1.16-2.55,1.74-4.18,1.74h-1.22v.94h32.61c6.96,0,13-1.36,18.14-4.09s9.15-6.55,12.03-11.47c2.88-4.92,4.32-10.7,4.32-17.34s-1.44-12.44-4.32-17.39c-2.88-4.95-6.89-8.77-12.03-11.47ZM623.53,77.56c-2.07,4.45-4.98,7.89-8.74,10.34-3.76,2.44-8.18,3.66-13.25,3.66h-16.26v-59.4h16.26c5.08,0,9.49,1.22,13.25,3.66,3.76,2.44,6.67,5.89,8.74,10.34,2.07,4.45,3.1,9.68,3.1,15.7s-1.03,11.25-3.1,15.7Z"/><path class="cls-1" d="M700.17,31.88c-5.23-2.82-11.36-4.23-18.37-4.23s-12.96,1.41-18.19,4.23c-5.23,2.82-9.3,6.8-12.22,11.94-2.91,5.14-4.37,11.15-4.37,18.05s1.46,12.91,4.37,18.05c2.91,5.14,6.99,9.12,12.22,11.94,5.23,2.82,11.29,4.23,18.19,4.23s13.14-1.41,18.37-4.23c5.23-2.82,9.3-6.8,12.22-11.94,2.91-5.14,4.37-11.15,4.37-18.05s-1.46-12.91-4.37-18.05c-2.91-5.14-6.99-9.12-12.22-11.94ZM703.6,78.22c-2.07,4.64-4.95,8.24-8.65,10.81-3.7,2.57-8.08,3.85-13.16,3.85s-9.29-1.28-13.02-3.85c-3.73-2.57-6.63-6.17-8.69-10.81-2.07-4.64-3.1-10.09-3.1-16.35s1.03-11.72,3.1-16.35c2.07-4.64,4.96-8.24,8.69-10.81,3.73-2.57,8.07-3.85,13.02-3.85s9.46,1.29,13.16,3.85c3.7,2.57,6.58,6.17,8.65,10.81,2.07,4.64,3.1,10.09,3.1,16.35s-1.03,11.72-3.1,16.35Z"/><path class="cls-1" d="M787.53,28.97h-14.57v.94h1.79c1.63,0,2.99.55,4.09,1.64,1.1,1.1,1.68,2.46,1.74,4.09v43.25l-50-51.33h-.94c.63,4.51.94,8.43.94,11.75v48.78c0,1.57-.56,2.91-1.69,4.04-1.13,1.13-2.48,1.69-4.04,1.69h-1.79v.94h22.37v-.94h-1.79c-1.57,0-2.91-.56-4.04-1.69-1.13-1.13-1.69-2.47-1.69-4.04h-.01l-.07-43.34,50.08,51.33h.85c-.31-2.19-.55-4.21-.7-6.06-.16-1.85-.23-3.84-.23-5.97v-48.4c.06-1.63.66-2.99,1.79-4.09,1.13-1.1,2.47-1.64,4.04-1.64h1.69v-.94h-7.8Z"/><path class="cls-1" d="M849.37,78.22c-1,2.63-2.22,4.95-3.66,6.95-1.44,2.01-3.26,3.56-5.45,4.65-2.19,1.1-4.92,1.64-8.18,1.64h-13.06v-27.54h14.76c1.63,0,2.97.56,4.04,1.69,1.06,1.13,1.6,2.48,1.6,4.04v1.22h.94v-17.1h-.94v1.13c0,1.57-.53,2.91-1.6,4.04-1.07,1.13-2.41,1.72-4.04,1.79h-14.76v-28.48h18.58c1.63.21,3.01.85,4.12,1.97,1.28,1.32,1.93,2.95,1.93,4.89v1.5h.94v-13.35c-.56.25-1.5.5-2.82.75-1.32.25-2.74.47-4.28.66-1.54.19-2.99.28-4.37.28h-30.07l.09.94h1.13c1.63,0,3.04.58,4.23,1.74,1.19,1.16,1.79,2.55,1.79,4.18v52.07c-.06,1.63-.67,3.02-1.83,4.18-1.16,1.16-2.55,1.74-4.18,1.74h-1.22v.94h42.2l5.08-16.54h-.94Z"/><path class="cls-1" d="M3.64,14.76v83.91h47.51c26.2,0,47.51-21.32,47.51-47.51,0-8.35-2.13-16.38-6.21-23.51l2.9-2.26c4.57,7.79,6.95,16.6,6.95,25.77,0,28.2-22.95,51.15-51.15,51.15H0V7.32l.06.05,53.3,41.49,35-27.24c-.38-.47-.76-.94-1.16-1.4-.39-.46-2.04-2.22-2.46-2.65-8.98-8.98-20.91-13.92-33.6-13.92V0c13.66,0,26.51,5.32,36.17,14.99.53.53,2.36,2.52,2.76,2.98.39.46.78.93,1.15,1.41l12.56-9.78v4.61l-50.43,39.25L3.64,14.76Z"/></svg>